<svg xmlns="http://www.w3.org/2000/svg" viewBox="0 0 370 370" width="370" height="370" shape-rendering="crispEdges"><rect width="370" height="370" fill="#ffffff"/><path d="M20 20h10v10h-10zM30 20h10v10h-10zM40 20h10v10h-10zM50 20h10v10h-10zM60 20h10v10h-10zM70 20h10v10h-10zM80 20h10v10h-10zM100 20h10v10h-10zM110 20h10v10h-10zM120 20h10v10h-10zM130 20h10v10h-10zM160 20h10v10h-10zM180 20h10v10h-10zM230 20h10v10h-10zM260 20h10v10h-10zM280 20h10v10h-10zM290 20h10v10h-10zM300 20h10v10h-10zM310 20h10v10h-10zM320 20h10v10h-10zM330 20h10v10h-10zM340 20h10v10h-10zM20 30h10v10h-10zM80 30h10v10h-10zM110 30h10v10h-10zM120 30h10v10h-10zM140 30h10v10h-10zM180 30h10v10h-10zM230 30h10v10h-10zM240 30h10v10h-10zM280 30h10v10h-10zM340 30h10v10h-10zM20 40h10v10h-10zM40 40h10v10h-10zM50 40h10v10h-10zM60 40h10v10h-10zM80 40h10v10h-10zM100 40h10v10h-10zM110 40h10v10h-10zM120 40h10v10h-10zM130 40h10v10h-10zM140 40h10v10h-10zM160 40h10v10h-10zM190 40h10v10h-10zM220 40h10v10h-10zM230 40h10v10h-10zM240 40h10v10h-10zM260 40h10v10h-10zM280 40h10v10h-10zM300 40h10v10h-10zM310 40h10v10h-10zM320 40h10v10h-10zM340 40h10v10h-10zM20 50h10v10h-10zM40 50h10v10h-10zM50 50h10v10h-10zM60 50h10v10h-10zM80 50h10v10h-10zM110 50h10v10h-10zM130 50h10v10h-10zM150 50h10v10h-10zM190 50h10v10h-10zM200 50h10v10h-10zM210 50h10v10h-10zM260 50h10v10h-10zM280 50h10v10h-10zM300 50h10v10h-10zM310 50h10v10h-10zM320 50h10v10h-10zM340 50h10v10h-10zM20 60h10v10h-10zM40 60h10v10h-10zM50 60h10v10h-10zM60 60h10v10h-10zM80 60h10v10h-10zM100 60h10v10h-10zM110 60h10v10h-10zM190 60h10v10h-10zM210 60h10v10h-10zM220 60h10v10h-10zM240 60h10v10h-10zM250 60h10v10h-10zM280 60h10v10h-10zM300 60h10v10h-10zM310 60h10v10h-10zM320 60h10v10h-10zM340 60h10v10h-10zM20 70h10v10h-10zM80 70h10v10h-10zM110 70h10v10h-10zM160 70h10v10h-10zM180 70h10v10h-10zM200 70h10v10h-10zM210 70h10v10h-10zM260 70h10v10h-10zM280 70h10v10h-10zM340 70h10v10h-10zM20 80h10v10h-10zM30 80h10v10h-10zM40 80h10v10h-10zM50 80h10v10h-10zM60 80h10v10h-10zM70 80h10v10h-10zM80 80h10v10h-10zM100 80h10v10h-10zM120 80h10v10h-10zM140 80h10v10h-10zM160 80h10v10h-10zM180 80h10v10h-10zM200 80h10v10h-10zM220 80h10v10h-10zM240 80h10v10h-10zM260 80h10v10h-10zM280 80h10v10h-10zM290 80h10v10h-10zM300 80h10v10h-10zM310 80h10v10h-10zM320 80h10v10h-10zM330 80h10v10h-10zM340 80h10v10h-10zM100 90h10v10h-10zM120 90h10v10h-10zM140 90h10v10h-10zM150 90h10v10h-10zM160 90h10v10h-10zM210 90h10v10h-10zM70 100h10v10h-10zM80 100h10v10h-10zM110 100h10v10h-10zM140 100h10v10h-10zM150 100h10v10h-10zM160 100h10v10h-10zM170 100h10v10h-10zM210 100h10v10h-10zM220 100h10v10h-10zM230 100h10v10h-10zM240 100h10v10h-10zM280 100h10v10h-10zM300 100h10v10h-10zM320 100h10v10h-10zM340 100h10v10h-10zM20 110h10v10h-10zM60 110h10v10h-10zM70 110h10v10h-10zM100 110h10v10h-10zM140 110h10v10h-10zM150 110h10v10h-10zM170 110h10v10h-10zM180 110h10v10h-10zM210 110h10v10h-10zM220 110h10v10h-10zM230 110h10v10h-10zM250 110h10v10h-10zM270 110h10v10h-10zM300 110h10v10h-10zM330 110h10v10h-10zM20 120h10v10h-10zM80 120h10v10h-10zM100 120h10v10h-10zM120 120h10v10h-10zM130 120h10v10h-10zM170 120h10v10h-10zM180 120h10v10h-10zM190 120h10v10h-10zM200 120h10v10h-10zM220 120h10v10h-10zM230 120h10v10h-10zM240 120h10v10h-10zM260 120h10v10h-10zM270 120h10v10h-10zM290 120h10v10h-10zM310 120h10v10h-10zM320 120h10v10h-10zM20 130h10v10h-10zM60 130h10v10h-10zM150 130h10v10h-10zM160 130h10v10h-10zM170 130h10v10h-10zM190 130h10v10h-10zM220 130h10v10h-10zM240 130h10v10h-10zM260 130h10v10h-10zM270 130h10v10h-10zM290 130h10v10h-10zM310 130h10v10h-10zM320 130h10v10h-10zM330 130h10v10h-10zM340 130h10v10h-10zM20 140h10v10h-10zM30 140h10v10h-10zM80 140h10v10h-10zM90 140h10v10h-10zM100 140h10v10h-10zM130 140h10v10h-10zM140 140h10v10h-10zM150 140h10v10h-10zM160 140h10v10h-10zM170 140h10v10h-10zM200 140h10v10h-10zM210 140h10v10h-10zM250 140h10v10h-10zM260 140h10v10h-10zM280 140h10v10h-10zM320 140h10v10h-10zM330 140h10v10h-10zM340 140h10v10h-10zM20 150h10v10h-10zM30 150h10v10h-10zM70 150h10v10h-10zM90 150h10v10h-10zM110 150h10v10h-10zM130 150h10v10h-10zM170 150h10v10h-10zM190 150h10v10h-10zM210 150h10v10h-10zM250 150h10v10h-10zM290 150h10v10h-10zM330 150h10v10h-10zM30 160h10v10h-10zM40 160h10v10h-10zM50 160h10v10h-10zM70 160h10v10h-10zM80 160h10v10h-10zM90 160h10v10h-10zM100 160h10v10h-10zM120 160h10v10h-10zM130 160h10v10h-10zM150 160h10v10h-10zM160 160h10v10h-10zM200 160h10v10h-10zM220 160h10v10h-10zM230 160h10v10h-10zM240 160h10v10h-10zM280 160h10v10h-10zM290 160h10v10h-10zM310 160h10v10h-10zM330 160h10v10h-10zM40 170h10v10h-10zM50 170h10v10h-10zM70 170h10v10h-10zM90 170h10v10h-10zM100 170h10v10h-10zM110 170h10v10h-10zM130 170h10v10h-10zM140 170h10v10h-10zM150 170h10v10h-10zM170 170h10v10h-10zM180 170h10v10h-10zM200 170h10v10h-10zM240 170h10v10h-10zM250 170h10v10h-10zM260 170h10v10h-10zM290 170h10v10h-10zM300 170h10v10h-10zM320 170h10v10h-10zM20 180h10v10h-10zM60 180h10v10h-10zM80 180h10v10h-10zM90 180h10v10h-10zM100 180h10v10h-10zM110 180h10v10h-10zM120 180h10v10h-10zM140 180h10v10h-10zM150 180h10v10h-10zM160 180h10v10h-10zM170 180h10v10h-10zM190 180h10v10h-10zM210 180h10v10h-10zM220 180h10v10h-10zM230 180h10v10h-10zM240 180h10v10h-10zM270 180h10v10h-10zM290 180h10v10h-10zM300 180h10v10h-10zM310 180h10v10h-10zM60 190h10v10h-10zM70 190h10v10h-10zM90 190h10v10h-10zM110 190h10v10h-10zM120 190h10v10h-10zM130 190h10v10h-10zM140 190h10v10h-10zM150 190h10v10h-10zM180 190h10v10h-10zM210 190h10v10h-10zM250 190h10v10h-10zM290 190h10v10h-10zM310 190h10v10h-10zM320 190h10v10h-10zM30 200h10v10h-10zM70 200h10v10h-10zM80 200h10v10h-10zM90 200h10v10h-10zM120 200h10v10h-10zM140 200h10v10h-10zM150 200h10v10h-10zM170 200h10v10h-10zM190 200h10v10h-10zM210 200h10v10h-10zM240 200h10v10h-10zM250 200h10v10h-10zM260 200h10v10h-10zM280 200h10v10h-10zM290 200h10v10h-10zM310 200h10v10h-10zM320 200h10v10h-10zM340 200h10v10h-10zM30 210h10v10h-10zM40 210h10v10h-10zM60 210h10v10h-10zM90 210h10v10h-10zM100 210h10v10h-10zM110 210h10v10h-10zM140 210h10v10h-10zM170 210h10v10h-10zM180 210h10v10h-10zM190 210h10v10h-10zM200 210h10v10h-10zM210 210h10v10h-10zM220 210h10v10h-10zM240 210h10v10h-10zM260 210h10v10h-10zM270 210h10v10h-10zM280 210h10v10h-10zM300 210h10v10h-10zM310 210h10v10h-10zM320 210h10v10h-10zM330 210h10v10h-10zM30 220h10v10h-10zM40 220h10v10h-10zM60 220h10v10h-10zM80 220h10v10h-10zM110 220h10v10h-10zM130 220h10v10h-10zM140 220h10v10h-10zM150 220h10v10h-10zM160 220h10v10h-10zM170 220h10v10h-10zM190 220h10v10h-10zM200 220h10v10h-10zM220 220h10v10h-10zM250 220h10v10h-10zM270 220h10v10h-10zM320 220h10v10h-10zM20 230h10v10h-10zM30 230h10v10h-10zM40 230h10v10h-10zM50 230h10v10h-10zM60 230h10v10h-10zM70 230h10v10h-10zM90 230h10v10h-10zM100 230h10v10h-10zM110 230h10v10h-10zM120 230h10v10h-10zM140 230h10v10h-10zM200 230h10v10h-10zM250 230h10v10h-10zM260 230h10v10h-10zM270 230h10v10h-10zM280 230h10v10h-10zM290 230h10v10h-10zM300 230h10v10h-10zM310 230h10v10h-10zM320 230h10v10h-10zM20 240h10v10h-10zM50 240h10v10h-10zM80 240h10v10h-10zM100 240h10v10h-10zM130 240h10v10h-10zM180 240h10v10h-10zM220 240h10v10h-10zM230 240h10v10h-10zM240 240h10v10h-10zM260 240h10v10h-10zM270 240h10v10h-10zM290 240h10v10h-10zM300 240h10v10h-10zM310 240h10v10h-10zM330 240h10v10h-10zM20 250h10v10h-10zM40 250h10v10h-10zM50 250h10v10h-10zM110 250h10v10h-10zM120 250h10v10h-10zM140 250h10v10h-10zM150 250h10v10h-10zM160 250h10v10h-10zM190 250h10v10h-10zM200 250h10v10h-10zM250 250h10v10h-10zM260 250h10v10h-10zM290 250h10v10h-10zM320 250h10v10h-10zM20 260h10v10h-10zM30 260h10v10h-10zM60 260h10v10h-10zM80 260h10v10h-10zM90 260h10v10h-10zM110 260h10v10h-10zM130 260h10v10h-10zM190 260h10v10h-10zM210 260h10v10h-10zM220 260h10v10h-10zM230 260h10v10h-10zM260 260h10v10h-10zM270 260h10v10h-10zM280 260h10v10h-10zM290 260h10v10h-10zM300 260h10v10h-10zM340 260h10v10h-10zM100 270h10v10h-10zM110 270h10v10h-10zM130 270h10v10h-10zM160 270h10v10h-10zM180 270h10v10h-10zM230 270h10v10h-10zM240 270h10v10h-10zM250 270h10v10h-10zM260 270h10v10h-10zM300 270h10v10h-10zM310 270h10v10h-10zM320 270h10v10h-10zM340 270h10v10h-10zM20 280h10v10h-10zM30 280h10v10h-10zM40 280h10v10h-10zM50 280h10v10h-10zM60 280h10v10h-10zM70 280h10v10h-10zM80 280h10v10h-10zM110 280h10v10h-10zM130 280h10v10h-10zM140 280h10v10h-10zM150 280h10v10h-10zM160 280h10v10h-10zM190 280h10v10h-10zM200 280h10v10h-10zM220 280h10v10h-10zM240 280h10v10h-10zM250 280h10v10h-10zM260 280h10v10h-10zM280 280h10v10h-10zM300 280h10v10h-10zM310 280h10v10h-10zM320 280h10v10h-10zM330 280h10v10h-10zM20 290h10v10h-10zM80 290h10v10h-10zM100 290h10v10h-10zM120 290h10v10h-10zM130 290h10v10h-10zM140 290h10v10h-10zM150 290h10v10h-10zM180 290h10v10h-10zM220 290h10v10h-10zM250 290h10v10h-10zM260 290h10v10h-10zM300 290h10v10h-10zM310 290h10v10h-10zM320 290h10v10h-10zM330 290h10v10h-10zM20 300h10v10h-10zM40 300h10v10h-10zM50 300h10v10h-10zM60 300h10v10h-10zM80 300h10v10h-10zM110 300h10v10h-10zM120 300h10v10h-10zM130 300h10v10h-10zM140 300h10v10h-10zM150 300h10v10h-10zM180 300h10v10h-10zM210 300h10v10h-10zM230 300h10v10h-10zM260 300h10v10h-10zM270 300h10v10h-10zM280 300h10v10h-10zM290 300h10v10h-10zM300 300h10v10h-10zM20 310h10v10h-10zM40 310h10v10h-10zM50 310h10v10h-10zM60 310h10v10h-10zM80 310h10v10h-10zM110 310h10v10h-10zM120 310h10v10h-10zM130 310h10v10h-10zM160 310h10v10h-10zM190 310h10v10h-10zM210 310h10v10h-10zM220 310h10v10h-10zM230 310h10v10h-10zM290 310h10v10h-10zM340 310h10v10h-10zM20 320h10v10h-10zM40 320h10v10h-10zM50 320h10v10h-10zM60 320h10v10h-10zM80 320h10v10h-10zM110 320h10v10h-10zM120 320h10v10h-10zM140 320h10v10h-10zM150 320h10v10h-10zM180 320h10v10h-10zM190 320h10v10h-10zM200 320h10v10h-10zM210 320h10v10h-10zM240 320h10v10h-10zM250 320h10v10h-10zM260 320h10v10h-10zM300 320h10v10h-10zM310 320h10v10h-10zM320 320h10v10h-10zM330 320h10v10h-10zM340 320h10v10h-10zM20 330h10v10h-10zM80 330h10v10h-10zM130 330h10v10h-10zM150 330h10v10h-10zM170 330h10v10h-10zM180 330h10v10h-10zM220 330h10v10h-10zM240 330h10v10h-10zM250 330h10v10h-10zM270 330h10v10h-10zM310 330h10v10h-10zM320 330h10v10h-10zM20 340h10v10h-10zM30 340h10v10h-10zM40 340h10v10h-10zM50 340h10v10h-10zM60 340h10v10h-10zM70 340h10v10h-10zM80 340h10v10h-10zM110 340h10v10h-10zM120 340h10v10h-10zM150 340h10v10h-10zM160 340h10v10h-10zM170 340h10v10h-10zM190 340h10v10h-10zM200 340h10v10h-10zM230 340h10v10h-10zM250 340h10v10h-10zM260 340h10v10h-10zM310 340h10v10h-10zM330 340h10v10h-10z" fill="#0b0b0f"/></svg>